# xmcd
#
# Track frame offsets:
#	158
#	9713
#	23338
#	36038
#	47458
#	59938
#	70808
#	81548
#	93950
#	107188
#	118088
#	131288
#	143563
#	156955
#	169445
#	180488
#
# Disc length: 2557 seconds
#
# Revision: 2
# Processed by: cddbd v1.4PL0 Copyright (c) Steve Scherf et al.
# Submitted via: audiograbber 1.81.02
#
DISCID=d609fb10
DTITLE=Various Artist - Blues For The People
DYEAR=1900
DGENRE=Blues
TTITLE0=Lowell Fuson - Every Day (I Have The Blues)
TTITLE1=Charles Brown - In The Clay
TTITLE2=Ray Charles - Rockin' Chair Blues
TTITLE3=Linda Hayes - Take Me Back
TTITLE4=Lowell Fulson - Guitar Shuffle
TTITLE5=Charles Brown - Don't Leave Me
TTITLE6=Lloys Glenn - Chica Boo
TTITLE7=Jimmy McCracklin - Blues For The People
TTITLE8=Charles Brown - Do The Best I Can
TTITLE9=Lowell Fulson - Low Society Blues
TTITLE10=Jimmy McCracklin - It's Alright
TTITLE11=Lloyd Glenn - Old Time Shuffle
TTITLE12=Ray Charles - Alone In The City
TTITLE13=Charles Brown - Johnny's Last Letter
TTITLE14=Lowell Fulson - Blues With A Feeling
TTITLE15=Charles Brown - No Good Blues
EXTD=
EXTT0=
EXTT1=
EXTT2=
EXTT3=
EXTT4=
EXTT5=
EXTT6=
EXTT7=
EXTT8=
EXTT9=
EXTT10=
EXTT11=
EXTT12=
EXTT13=
EXTT14=
EXTT15=
PLAYORDER=
